HIERARCHY
ROOT Hips
{
	OFFSET 0.000000 0.000000 0.000000
	CHANNELS 6 Xposition Yposition Zposition Zrotation Yrotation Xrotation 
	JOINT LeftUpLeg_virtual
	{
		OFFSET 0.000000 0.000000 0.000000
		CHANNELS 3 Zrotation Yrotation Xrotation
		JOINT LeftUpLeg
		{
			OFFSET 10.205400 -3.823500 0.155100
			CHANNELS 3 Zrotation Yrotation Xrotation
			JOINT LeftLeg
			{
				OFFSET 0.708757 -12.982077 0.567790
				CHANNELS 3 Zrotation Yrotation Xrotation
				JOINT LeftFoot
				{
					OFFSET -0.708756 -10.717838 -2.184338
					CHANNELS 3 Zrotation Yrotation Xrotation
					JOINT LeftToeBase
					{
						OFFSET 0.108149 -7.191104 7.560241
						CHANNELS 3 Zrotation Yrotation Xrotation
						End Site
						{
							OFFSET 0.000000 0.000000 0.000000
						}
					}
				}
			}
		}
	}
	JOINT RightUpLeg_virtual
	{
		OFFSET 0.000000 0.000000 0.000000
		CHANNELS 3 Zrotation Yrotation Xrotation
		JOINT RightUpLeg
		{
			OFFSET -10.205400 -3.823500 0.005500
			CHANNELS 3 Zrotation Yrotation Xrotation
			JOINT RightLeg
			{
				OFFSET -0.708756 -12.982134 0.610632
				CHANNELS 3 Zrotation Yrotation Xrotation
				JOINT RightFoot
				{
					OFFSET 0.708754 -10.717769 -1.945823
					CHANNELS 3 Zrotation Yrotation Xrotation
					JOINT RightToeBase
					{
						OFFSET -0.108140 -7.191069 7.372968
						CHANNELS 3 Zrotation Yrotation Xrotation
						End Site
						{
							OFFSET 0.000000 0.000000 0.000000
						}
					}
				}
			}
		}
	}
	JOINT Spine_virtual
	{
		OFFSET 0.000000 0.000000 0.000000
		CHANNELS 3 Zrotation Yrotation Xrotation
		JOINT Spine
		{
			OFFSET 0.000000 6.876099 0.125700
			CHANNELS 3 Zrotation Yrotation Xrotation
			JOINT Spine1
			{
				OFFSET 0.000000 8.022060 0.146608
				CHANNELS 3 Zrotation Yrotation Xrotation
				JOINT Spine2
				{
					OFFSET 0.000000 9.168068 0.167552
					CHANNELS 3 Zrotation Yrotation Xrotation
					JOINT Neck_virtual
					{
						OFFSET 0.000000 0.000000 0.000000
						CHANNELS 3 Zrotation Yrotation Xrotation
						JOINT Neck
						{
							OFFSET 0.000000 10.314075 0.188496
							CHANNELS 3 Zrotation Yrotation Xrotation
							JOINT Head
							{
								OFFSET 0.000000 7.643700 -2.377400
								CHANNELS 3 Zrotation Yrotation Xrotation
								End Site
								{
									OFFSET 0.000000 0.000000 0.000000
								}
							}
						}
					}
					JOINT LeftShoulder_virtual
					{
						OFFSET 0.000000 0.000000 0.000000
						CHANNELS 3 Zrotation Yrotation Xrotation
						JOINT LeftShoulder
						{
							OFFSET 4.392200 8.824978 0.174984
							CHANNELS 3 Zrotation Yrotation Xrotation
							JOINT LeftArm
							{
								OFFSET 8.771219 -2.981674 -0.026999
								CHANNELS 3 Zrotation Yrotation Xrotation
								JOINT LeftForeArm
								{
									OFFSET 8.512804 0.000000 -0.000000
									CHANNELS 3 Zrotation Yrotation Xrotation
									JOINT LeftHand
									{
										OFFSET 18.484802 0.000000 -0.000000
										CHANNELS 3 Zrotation Yrotation Xrotation
										End Site
										{
											OFFSET 0.000000 0.000000 0.000000
										}
									}
								}
							}
						}
					}
					JOINT RightShoulder_virtual
					{
						OFFSET 0.000000 0.000000 0.000000
						CHANNELS 3 Zrotation Yrotation Xrotation
						JOINT RightShoulder
						{
							OFFSET -4.392200 8.824993 0.141379
							CHANNELS 3 Zrotation Yrotation Xrotation
							JOINT RightArm
							{
								OFFSET -8.771282 -2.981682 -0.094208
								CHANNELS 3 Zrotation Yrotation Xrotation
								JOINT RightForeArm
								{
									OFFSET -8.494598 0.000000 0.000000
									CHANNELS 3 Zrotation Yrotation Xrotation
									JOINT RightHand
									{
										OFFSET -18.483803 0.000000 0.000001
										CHANNELS 3 Zrotation Yrotation Xrotation
										End Site
										{
											OFFSET 0.000000 0.000000 0.000000
										}
									}
								}
							}
						}
					}
				}
			}
		}
	}
}
MOTION
Frames: 10
Frame Time: 0.033333
3.859303 36.552181 -0.564611 -179.934476 1.141179 -179.884793 -2.333861 -3.229486 9.478944 -6.311465 1.950328 -15.460873 12.047397 5.908190 16.651569 -3.585910 -1.984367 10.928678 0.000000 0.000000 0.000000 2.503977 -0.697782 7.616399 -4.897362 4.032863 -11.516863 -8.341787 1.745072 17.507260 10.082019 3.363024 9.133866 0.000000 0.000000 0.000000 1.587498 0.619653 -3.598647 -4.561378 3.027951 -4.680290 -0.083668 -3.388506 2.632698 -0.037477 -0.000737 0.047009 -0.614326 -1.440186 4.515215 1.051726 -2.545427 2.375603 0.000000 0.000000 0.000000 0.864903 -0.575065 1.689918 5.191939 -0.338735 -4.193506 -3.963126 26.288590 -35.858650 -1.245733 -44.929944 -4.743595 0.000000 0.000000 0.000000 -2.717309 0.089714 1.314341 7.022933 -9.413108 -7.765448 16.458415 -29.048193 -35.701477 -1.423369 36.896969 -4.703973 0.000000 0.000000 0.000000 
3.862268 36.551319 -0.568291 -179.956510 1.042523 -179.827720 -2.276435 -3.386663 9.634429 -6.552483 2.126233 -15.356285 12.020540 6.184592 16.963897 -3.477874 -1.979242 11.142012 0.000000 0.000000 0.000000 2.509304 -0.600637 7.687073 -4.876493 3.917771 -11.434170 -8.516577 1.607690 17.774720 9.816188 3.072078 9.553107 0.000000 0.000000 0.000000 1.566312 0.655933 -3.609618 -4.582800 3.055969 -4.733290 -0.085859 -3.354415 2.621664 -0.016290 0.031006 0.073554 -0.640306 -1.837975 4.499096 1.071620 -2.508100 2.347074 0.000000 0.000000 0.000000 0.874221 -0.719992 1.763274 5.135975 -0.442387 -4.169647 -3.863410 26.271385 -35.746826 -1.179188 -44.877451 -4.845042 0.000000 0.000000 0.000000 -2.717259 -0.016342 1.209768 7.054924 -9.487886 -7.703376 16.365434 -29.094629 -35.720086 -1.212361 36.849912 -4.488875 0.000000 0.000000 0.000000 
3.862774 36.544384 -0.571182 179.983640 0.997929 -179.822311 -2.306209 -3.394764 9.651002 -6.574528 2.156009 -15.437612 11.944590 6.147847 16.990943 -3.427310 -2.066710 11.094636 0.000000 0.000000 0.000000 2.462735 -0.581550 7.720757 -4.884868 3.940576 -11.441053 -8.557596 1.575633 17.745279 9.901726 2.958315 9.486549 0.000000 0.000000 0.000000 1.541990 0.628747 -3.574206 -4.610378 3.050725 -4.780733 -0.115227 -3.337512 2.633982 -0.010280 0.034437 0.062717 -0.625459 -1.632485 4.479665 1.039026 -2.482028 2.298874 0.000000 0.000000 0.000000 0.856014 -0.683255 1.747381 5.170457 -0.317504 -4.268930 -3.980919 26.342779 -35.734361 -1.194246 -44.858924 -4.869786 0.000000 0.000000 0.000000 -2.721251 -0.038176 1.248726 7.002231 -9.491312 -7.788669 16.527419 -28.969851 -35.936712 -1.303581 36.762209 -4.608230 0.000000 0.000000 0.000000 
3.858316 36.536892 -0.568370 -179.920064 0.977082 -179.809374 -2.169470 -3.351204 9.679351 -6.575005 2.182350 -15.478634 11.899852 6.274584 17.041226 -3.394325 -2.164171 11.037085 0.000000 0.000000 0.000000 2.557642 -0.569886 7.763491 -4.865551 3.956730 -11.430302 -8.625000 1.558226 17.707055 9.965343 2.946660 9.437820 0.000000 0.000000 0.000000 1.620560 0.593168 -3.478930 -4.567193 3.004502 -4.881216 -0.100900 -3.376939 2.614547 0.008383 -0.013720 0.070273 -0.689696 -1.462729 4.511871 1.028314 -2.423896 2.372163 0.000000 0.000000 0.000000 0.819878 -0.560415 1.724679 5.179359 -0.101104 -4.209978 -3.931977 26.300084 -35.602429 -1.211003 -44.778676 -4.890312 0.000000 0.000000 0.000000 -2.769205 0.124382 1.280371 7.001960 -9.370261 -7.855287 16.648769 -28.857573 -36.028162 -1.286157 36.618908 -4.592630 0.000000 0.000000 0.000000 
3.851569 36.532787 -0.560929 -179.925310 0.856685 -179.866926 -2.142745 -3.430832 9.700568 -6.591361 2.277050 -15.477873 11.817292 6.275339 17.045975 -3.327245 -2.278573 10.921725 0.000000 0.000000 0.000000 2.560943 -0.703570 7.836095 -4.883573 3.973399 -11.385017 -8.700864 1.505901 17.594526 10.093824 2.896486 9.359033 0.000000 0.000000 0.000000 1.643254 0.584857 -3.337074 -4.564022 3.015004 -4.977321 -0.124294 -3.345184 2.639232 0.025456 0.001422 0.067967 -0.724739 -1.503140 4.482794 0.979360 -2.364509 2.390578 0.000000 0.000000 0.000000 0.798645 -0.612870 1.745046 5.204649 -0.053952 -4.238444 -3.953623 26.199298 -35.510515 -1.143009 -44.683938 -4.848977 0.000000 0.000000 0.000000 -2.805335 0.070648 1.206514 6.981274 -9.417443 -7.819746 16.781396 -28.820980 -36.173795 -1.210492 36.482936 -4.490364 0.000000 0.000000 0.000000 
3.849753 36.530178 -0.546878 -179.924873 0.794763 -179.878728 -2.107898 -3.487698 9.722773 -6.599324 2.465170 -15.473525 11.673767 6.209336 16.908070 -3.262109 -2.384718 10.807690 0.000000 0.000000 0.000000 2.577021 -0.834374 7.874271 -4.900292 4.007806 -11.345649 -8.765339 1.484284 17.418436 10.270902 2.791907 9.327663 0.000000 0.000000 0.000000 1.676608 0.498780 -3.180655 -4.545335 2.993257 -5.071207 -0.161038 -3.328889 2.610258 0.010335 -0.010324 0.030269 -0.746818 -1.414766 4.571257 0.950574 -2.237944 2.373597 0.000000 0.000000 0.000000 0.774717 -0.532477 1.763939 5.215147 0.172200 -4.402228 -3.871082 26.243306 -35.428000 -1.196400 -44.568958 -5.023247 0.000000 0.000000 0.000000 -2.820186 0.118290 1.312224 6.984982 -9.373290 -8.000506 16.886845 -28.783575 -36.317536 -1.129345 36.390182 -4.389984 0.000000 0.000000 0.000000 
3.847740 36.538944 -0.529690 179.990115 0.793508 -179.865259 -2.155098 -3.581672 9.764287 -6.649709 2.858216 -15.455533 11.540288 6.084881 16.651381 -3.190836 -2.486816 10.757728 0.000000 0.000000 0.000000 2.543370 -1.050446 7.928803 -4.967364 4.061449 -11.314208 -8.870154 1.407721 17.202321 10.481604 2.688603 9.353355 0.000000 0.000000 0.000000 1.646816 0.573124 -3.044043 -4.563038 2.945184 -5.310863 -0.231366 -3.300386 2.714321 -0.021990 -0.014991 0.030526 -0.738342 -1.477374 4.482771 0.883940 -2.124239 2.419895 0.000000 0.000000 0.000000 0.791468 -0.545518 1.701600 5.218799 0.283217 -4.407824 -3.952003 26.221535 -35.439161 -1.117535 -44.510707 -5.205451 0.000000 0.000000 0.000000 -2.810409 0.098410 1.209258 6.949346 -9.410495 -7.928361 17.022838 -28.779146 -36.335230 -1.292020 36.465308 -4.541961 0.000000 0.000000 0.000000 
3.843309 36.545143 -0.508667 179.995798 0.668517 -179.912702 -2.137513 -3.612836 9.857528 -6.672044 3.188834 -15.382052 11.361081 5.990979 16.388346 -3.133287 -2.573790 10.686797 0.000000 0.000000 0.000000 2.573269 -1.263572 8.015850 -5.010503 4.177488 -11.289210 -8.986650 1.231209 16.865021 10.714395 2.674823 9.405702 0.000000 0.000000 0.000000 1.689080 0.369729 -2.814219 -4.537536 2.920701 -5.516253 -0.264251 -3.251490 2.783693 -0.007750 0.008607 -0.007674 -0.774970 -1.420644 4.467342 0.829567 -1.965028 2.519601 0.000000 0.000000 0.000000 0.767731 -0.518160 1.691207 5.216604 0.480724 -4.467910 -3.958595 26.284675 -35.445898 -1.068276 -44.474797 -5.322859 0.000000 0.000000 0.000000 -2.845481 0.191998 1.136657 6.990217 -9.360555 -7.760428 17.146915 -28.884607 -36.330172 -1.470837 36.588456 -4.676051 0.000000 0.000000 0.000000 
3.837093 36.547279 -0.485523 -179.953068 0.553841 -179.945732 -2.074175 -3.573432 9.943491 -6.564129 3.062490 -15.309891 11.063055 6.199785 16.111791 -3.026729 -2.621713 10.619336 0.000000 0.000000 0.000000 2.628822 -1.557640 8.122994 -5.049185 4.245823 -11.325723 -8.996937 1.331869 16.497955 10.850375 2.647381 9.473993 0.000000 0.000000 0.000000 1.730437 0.309883 -2.552182 -4.511516 2.802767 -5.757373 -0.289643 -3.250277 2.798551 -0.005171 -0.028031 0.019582 -0.808139 -1.295404 4.464504 0.799745 -1.763008 2.628834 0.000000 0.000000 0.000000 0.693953 -0.452357 1.683227 5.183898 0.700957 -4.529186 -3.958597 26.428061 -35.341257 -1.093645 -44.468445 -5.316135 0.000000 0.000000 0.000000 -2.912888 0.247060 1.175347 7.009731 -9.302665 -7.865665 17.111521 -29.016532 -36.508410 -1.337052 36.856039 -4.474150 0.000000 0.000000 0.000000 
3.829113 36.550716 -0.468652 -179.905325 0.606567 -179.923452 -1.998455 -3.300431 9.993274 -6.338393 2.509635 -15.271553 10.696922 6.624625 15.864919 -2.802985 -2.578689 10.585931 0.000000 0.000000 0.000000 2.654517 -1.644306 8.208424 -5.079266 4.328404 -11.388881 -9.006663 1.386241 16.085183 10.957559 2.641430 9.605292 0.000000 0.000000 0.000000 1.723639 0.321645 -2.322734 -4.479653 2.741527 -6.038467 -0.301068 -3.172765 2.821867 0.002277 0.018003 0.006068 -0.868774 -1.294193 4.510344 0.674864 -1.625631 2.817540 0.000000 0.000000 0.000000 0.691014 -0.427660 1.731958 5.143167 0.841125 -4.655232 -3.889582 26.500881 -35.119999 -1.067601 -44.485473 -5.327458 0.000000 0.000000 0.000000 -2.943336 0.257471 1.212733 7.046092 -9.268794 -7.739454 17.288747 -29.200971 -36.876355 -1.417799 37.109524 -4.520912 0.000000 0.000000 0.000000 
